<svg xmlns="http://www.w3.org/2000/svg" width="75" height="75" viewBox="0 0 75 75"><defs><style>.a{fill:#dc6b2f;}</style></defs><g transform="translate(0 0)"><path class="a" d="M33.21,44.1H56.194a1.143,1.143,0,0,0,1.21-1.21V33.21A1.143,1.143,0,0,0,56.194,32H33.21A1.143,1.143,0,0,0,32,33.21v9.677A1.143,1.143,0,0,0,33.21,44.1Zm1.21-9.677H54.984v7.258H34.419Zm0,0" transform="translate(-27.161 -27.161)"/><path class="a" d="M32,128H56.194v2.419H32Zm0,0" transform="translate(-27.161 -108.645)"/><path class="a" d="M32,160H56.194v2.419H32Zm0,0" transform="translate(-27.161 -135.807)"/><path class="a" d="M32,192H56.194v2.419H32Zm0,0" transform="translate(-27.161 -162.968)"/><path class="a" d="M32,224H56.194v2.419H32Zm0,0" transform="translate(-27.161 -190.129)"/><path class="a" d="M74.638,14.879,64.96,5.2a1.1,1.1,0,0,0-.847-.363H50.807V1.21A1.143,1.143,0,0,0,49.6,0H1.21A1.143,1.143,0,0,0,0,1.21V67.742A7.28,7.28,0,0,0,7.258,75H55.646A7.28,7.28,0,0,0,62.9,67.742V54.435a1.143,1.143,0,0,0-1.21-1.21H50.807V50.806H73.791A1.143,1.143,0,0,0,75,49.6V15.726A1.1,1.1,0,0,0,74.638,14.879ZM65.323,8.951l5.565,5.565H65.323ZM60.484,55.645v12.1a4.839,4.839,0,0,1-9.677,0v-12.1ZM50.2,72.581H7.258A4.853,4.853,0,0,1,2.42,67.742V2.419H48.387V4.839H39.92a1.143,1.143,0,0,0-1.21,1.21V49.6a1.143,1.143,0,0,0,1.21,1.21h8.468V67.742A7.708,7.708,0,0,0,50.2,72.581ZM72.581,48.387H41.129V7.258H62.9v8.468a1.143,1.143,0,0,0,1.21,1.21h8.468Zm0,0"/><path class="a" d="M288,224h13.306v2.419H288Zm0,0" transform="translate(-244.451 -190.129)"/><path class="a" d="M288,256h13.306v2.419H288Zm0,0" transform="translate(-244.451 -217.29)"/><path class="a" d="M288,288h13.306v2.419H288Zm0,0" transform="translate(-244.451 -244.452)"/><path class="a" d="M288,192h26.613v2.419H288Zm0,0" transform="translate(-244.451 -162.968)"/><path class="a" d="M288,160h26.613v2.419H288Zm0,0" transform="translate(-244.451 -135.807)"/><path class="a" d="M288,128h26.613v2.419H288Zm0,0" transform="translate(-244.451 -108.645)"/><path class="a" d="M32,448H73.129v2.419H32Zm0,0" transform="translate(-27.161 -380.258)"/><path class="a" d="M32,416H73.129v2.419H32Zm0,0" transform="translate(-27.161 -353.097)"/><path class="a" d="M32,384H73.129v2.419H32Zm0,0" transform="translate(-27.161 -325.936)"/></g></svg>