<svg xmlns="http://www.w3.org/2000/svg" width="76.024" height="72.853" viewBox="0 0 76.024 72.853"><defs><style>.a{fill:#dc6b2f;stroke:#dc6b2f;}</style></defs><g transform="translate(0.524 0.019)"><path class="a" d="M30.734,51.62l1.366.044a.079.079,0,0,1,.072.054l.593,1.78a1.107,1.107,0,0,0,2.1-.7l-.593-1.78a2.3,2.3,0,0,0-2.1-1.568c-1.349-.043-1.431,0-1.443-.116L29.893,40.8a2.288,2.288,0,0,0-2.407-2.067,1.453,1.453,0,0,1-.383-.025c-.01-.023-1.029-3.375-1.037-3.4A2.3,2.3,0,0,0,24.585,33.8c-5.855-1.916-4.606-1.385-6.708-2.668h0a.079.079,0,0,1-.038-.072l.053-.892a2.294,2.294,0,0,0-3.219-2.232c-2.81,1.243-4.025,1.8-4.357,1.917-1.893-.122-1.938-.08-1.942-.2l-.011-.318a2.294,2.294,0,0,0-3.077-2.077.08.08,0,0,1-.086-.022L2.235,23.883A.078.078,0,0,1,2.22,23.8l1.1-3.085a.082.082,0,0,1,.06-.051L7.7,19.82a2.282,2.282,0,0,0,1.84-2.02c.789-7.784.85-5.628-.046-9.71-.028-.135-.019-.082,2.967-.537a.081.081,0,0,1,.072.026l1.752,2.012a2.3,2.3,0,0,0,2.857.492l2.379-1.342a2.3,2.3,0,0,0,1.055-2.708l-.732-2.25c-.046-.135.008-.093,5.837-1.065.1-.018-.019-.268,1.719,4.948a2.285,2.285,0,0,0,2.7,1.508l3.1-.727a2.329,2.329,0,0,0,1.754-1.9c.054-.087-.087-.083,3.382.869a2.3,2.3,0,0,0,2.474-.879l.842-1.178a.078.078,0,0,1,.138.018c1.938,5.069,1.869,5.327,2.875,5.83L47.9,12.825a1.107,1.107,0,1,0,.99-1.981L45.655,9.226c-.2-.37-.724-1.837-1.8-4.639a2.3,2.3,0,0,0-4.009-.514l-.842,1.178a.08.08,0,0,1-.085.03l-3.293-.9A2.294,2.294,0,0,0,32.773,6.14c0,.054-.021.137-.077.15-3.248.76-3.161.786-3.2.675l-1.632-4.9A2.283,2.283,0,0,0,25.312.532l-5.775.962a2.3,2.3,0,0,0-1.8,2.973l.732,2.25c.033.1.072.033-2.416,1.436a.079.079,0,0,1-.1-.017L14.2,6.124a2.281,2.281,0,0,0-2.075-.761l-2.9.441a2.294,2.294,0,0,0-1.9,2.76l.625,2.847c-.018.346-.174,1.776-.619,6.165-.009.092.227.013-4.38.918a2.306,2.306,0,0,0-1.718,1.48l-1.1,3.085a2.3,2.3,0,0,0,.442,2.291L3.539,28.7a2.282,2.282,0,0,0,2.5.637.078.078,0,0,1,.106.072l.011.318A2.285,2.285,0,0,0,8.3,31.941c3.046.2,1.585.532,7.264-1.982a.078.078,0,0,1,.111.077c-.05.847-.288,2.174,1.045,2.986l0,0,0,0c2.368,1.446.925.837,7.171,2.882a.08.08,0,0,1,.051.052l1.024,3.366c.382,1.255,1.359,1.626,2.638,1.626.112,0,.027-.457.916,8.6a2.3,2.3,0,0,0,2.209,2.069Zm0,0" transform="translate(0 0)"/><path class="a" d="M236.227,221.391c-3.272,3.052-3.41,3.043-3.6,3.914-1.4,6.346-1.848,8.488-1.979,8.957-.033.047-5.275,7.6-5.332,7.609-8.116.625-7.785.469-8.514,1.111-3.866,3.371-4.046,3.346-4.2,4.386-.37,2.434-.535,3.687-.627,4.029l-6.722,6.811a.079.079,0,0,1-.112,0l-4.761-4.685c-.113-.109-.241.073,4.845-3.882a2.3,2.3,0,0,0,.779-2.5l-.435-1.6a1.108,1.108,0,0,0-2.138.58c.014.05.444,1.638.46,1.687a.079.079,0,0,1-.026.087l-4.839,3.764a2.3,2.3,0,0,0-.2,3.446l4.761,4.685a2.3,2.3,0,0,0,3.242-.023l6.72-6.809c.853-.865.6-1.741,1.242-5.256.268-.3,1.371-1.219,3.464-3.044.5-.093,2.513-.212,7.233-.576a2.283,2.283,0,0,0,1.707-.977l5.278-7.581c.33-.426.227-.215,2.32-9.741.227-.264,1.173-1.112,2.949-2.77a1.107,1.107,0,0,0-1.511-1.62Zm0,0" transform="translate(-169.113 -188.28)"/><path class="a" d="M373.962,93.771a2.3,2.3,0,0,0-2.278-2.024h-1.632c-.482-.325-2.213-1.852-6.356-5.377-.9-.764-1.222-.562-7.285-.269-.317-.127-1.444-.73-3.877-1.98a1.107,1.107,0,1,0-1.012,1.97c4.3,2.209,4.21,2.261,5,2.222,3.667-.177,5.225-.292,5.747-.253,6.6,5.616,6.679,5.9,7.682,5.9,1.752,0,1.8-.045,1.816.069.007.059.557,4.555.514,4.6l-2.486,2.458a1.108,1.108,0,0,0,.778,1.895c.6,0,.581-.124,3.264-2.777a2.308,2.308,0,0,0,.681-1.631c0-.189.032.133-.553-4.8Zm0,0" transform="translate(-299.515 -71.267)"/></g></svg>