<svg xmlns="http://www.w3.org/2000/svg" width="75" height="75" viewBox="0 0 75 75"><defs><style>.a{fill:#dc6b2f;}</style></defs><g transform="translate(-1 -1)"><path class="a" d="M74.79,37.29H64.4L75.645,26.049a1.208,1.208,0,0,0,0-1.71L52.661,1.354a1.208,1.208,0,0,0-1.71,0L15.015,37.29H2.21A1.209,1.209,0,0,0,1,38.5V69.951a1.209,1.209,0,0,0,1.21,1.21H19.854l4.484,4.484a1.209,1.209,0,0,0,1.71,0l4.485-4.484H74.79A1.209,1.209,0,0,0,76,69.951V38.5A1.209,1.209,0,0,0,74.79,37.29ZM51.806,3.92,73.08,25.194l-12.1,12.1H51.747a13.3,13.3,0,0,0-26.5,0H18.435ZM32.726,37.29a2.421,2.421,0,0,1,.641-2.211L35.58,37.29Zm13.05,0a4.725,4.725,0,0,0-.433-.5,4.845,4.845,0,0,0-6.843,0l-3.422-3.421a2.478,2.478,0,0,1,3.421,0l1.71-1.71a4.839,4.839,0,0,0-6.842,0h0l-.855-.855-1.71,1.71.855.855a4.8,4.8,0,0,0-1.383,3.923h-2.59a10.882,10.882,0,0,1,21.63,0H45.776ZM25.193,73.08l-1.919-1.919h3.837ZM73.58,68.742H3.419V39.71H73.58Z" transform="translate(0 0)"/><path class="a" d="M29.419,50.306H27a4.844,4.844,0,0,0,4.839,4.839v1.21h2.419v-1.21a4.839,4.839,0,0,0,0-9.677V40.629a2.422,2.422,0,0,1,2.419,2.419H39.1a4.844,4.844,0,0,0-4.839-4.839V37H31.839v1.21a4.839,4.839,0,1,0,0,9.677v4.839A2.422,2.422,0,0,1,29.419,50.306Zm0-7.258a2.422,2.422,0,0,1,2.419-2.419v4.839A2.422,2.422,0,0,1,29.419,43.048Zm4.839,4.839a2.419,2.419,0,0,1,0,4.839Z" transform="translate(5.451 7.548)"/><path class="a" d="M34.306,60.613A13.306,13.306,0,1,0,21,47.306,13.322,13.322,0,0,0,34.306,60.613Zm0-24.193A10.887,10.887,0,1,1,23.419,47.306,10.9,10.9,0,0,1,34.306,36.419Z" transform="translate(4.193 6.919)"/><path class="a" d="M61.726,57.984V36.21A1.209,1.209,0,0,0,60.516,35H46v2.419H59.306V56.774H46v2.419H60.516A1.209,1.209,0,0,0,61.726,57.984Z" transform="translate(9.435 7.129)"/><path class="a" d="M6.21,59.193H20.726V56.774H7.419V37.419H20.726V35H6.21A1.209,1.209,0,0,0,5,36.21V57.984A1.209,1.209,0,0,0,6.21,59.193Z" transform="translate(0.839 7.129)"/><path class="a" d="M46,49h2.419v2.419H46Z" transform="translate(9.435 10.064)"/><path class="a" d="M50,49h2.419v2.419H50Z" transform="translate(10.274 10.064)"/><path class="a" d="M46,39h2.419v2.419H46Z" transform="translate(9.435 7.968)"/><path class="a" d="M50,39h2.419v2.419H50Z" transform="translate(10.274 7.968)"/><path class="a" d="M45.2,9.918,58.884,23.6l-9.409,9.409,1.71,1.71L61.45,24.459a1.208,1.208,0,0,0,0-1.71l-15.4-15.4a1.245,1.245,0,0,0-1.71,0L34.08,17.616l1.71,1.71Z" transform="translate(6.936 1.261)"/><path class="a" d="M0,0H2.419V2.419H0Z" transform="translate(52.983 30.855) rotate(-45)"/><path class="a" d="M0,0H2.419V2.419H0Z" transform="translate(56.403 27.433) rotate(-45)"/><path class="a" d="M0,0H2.419V2.419H0Z" transform="translate(44.431 22.302) rotate(-45)"/><path class="a" d="M0,0H2.419V2.419H0Z" transform="translate(47.851 18.88) rotate(-45)"/><path class="a" d="M12,39h2.419v2.419H12Z" transform="translate(2.306 7.968)"/><path class="a" d="M16,39h2.419v2.419H16Z" transform="translate(3.145 7.968)"/><path class="a" d="M12,49h2.419v2.419H12Z" transform="translate(2.306 10.064)"/><path class="a" d="M16,49h2.419v2.419H16Z" transform="translate(3.145 10.064)"/></g></svg>