<svg xmlns="http://www.w3.org/2000/svg" width="75" height="75.017" viewBox="0 0 75 75.017"><defs><style>.a{fill:#dc6b2f;}</style></defs><g transform="translate(-0.011 -1)"><path class="a" d="M21.336,9.728a5,5,0,1,0-5.376.838,5,5,0,0,0,5.376-.838ZM15.5,6A2.5,2.5,0,1,1,18,8.5,2.5,2.5,0,0,1,15.5,6Z" transform="translate(3.251)"/><path class="a" d="M47.3,9.728a5,5,0,1,0-5.376.838A5,5,0,0,0,47.3,9.728ZM41.47,6a2.5,2.5,0,1,1,2.5,2.5A2.5,2.5,0,0,1,41.47,6Z" transform="translate(9.75)"/><path class="a" d="M72.551,26.467a4.455,4.455,0,0,0-6,2.054l-4.5,6.908a6.19,6.19,0,0,0-1.4-1.133,3.611,3.611,0,0,0,.476-3l-.336-1.667a3.751,3.751,0,0,0,4.077-4.761l-2.626-9.309A6.26,6.26,0,0,0,56.222,11H51.3a6.258,6.258,0,0,0-6.016,4.55l-2.626,9.3a3.751,3.751,0,0,0,4.08,4.777l-.325,1.578a3.736,3.736,0,0,0,1.1,3.842v4.732a11.627,11.627,0,0,0-2.5,1.282,6.251,6.251,0,0,0-3.608-5.7,4.987,4.987,0,1,0-7.782,0A6.251,6.251,0,0,0,30,41.063a11.627,11.627,0,0,0-2.5-1.282V31a3.751,3.751,0,0,0,3.751-3.751V18.5a7.509,7.509,0,0,0-7.5-7.5h-5a7.509,7.509,0,0,0-7.5,7.5v8.752A3.751,3.751,0,0,0,15,31V33.95A6.021,6.021,0,0,0,12.975,35.4L8.5,27.366a4.392,4.392,0,0,0-2.546-2.349A4.428,4.428,0,0,0,.372,30.929c6.639,13.39,6.593,13.867,8.7,15.72l9.34,8.476a3.751,3.751,0,0,0-2.163,3.386V69.763A3.751,3.751,0,0,0,20,73.513H35a3.727,3.727,0,0,0,2.5-.975,3.727,3.727,0,0,0,2.5.975h15a3.751,3.751,0,0,0,3.751-3.751V58.51A3.751,3.751,0,0,0,56.6,55.124l9.326-8.462a10.788,10.788,0,0,0,2.738-3.677l5.951-10.752a4.382,4.382,0,0,0-2.059-5.766ZM45.908,27.1a1.25,1.25,0,0,1-.849-1.562l2.626-9.317A3.751,3.751,0,0,1,51.3,13.5h4.926a3.751,3.751,0,0,1,3.61,2.728l2.626,9.326a1.25,1.25,0,0,1-1.2,1.6,1.215,1.215,0,0,1-1.16-.814L58.725,20.7a1.25,1.25,0,1,0-2.428.6c1.682,6.876,1.138,4.462,2.416,10.607a1.25,1.25,0,0,1-.576,1.429,1.262,1.262,0,0,0-.25.189,5.681,5.681,0,0,0-2.876.773V33.5a1.25,1.25,0,0,0-2.5,0v2.8l-2.5,2.144V34.418a1.25,1.25,0,0,0-.625-1.081,1.292,1.292,0,0,1-.553-1.528c1.25-6.021.71-3.635,2.392-10.509a1.25,1.25,0,0,0-2.428-.6L47.42,26.331a1.242,1.242,0,0,1-1.512.773Zm-8.4,2.651a2.5,2.5,0,1,1-2.5,2.5A2.5,2.5,0,0,1,37.505,29.754Zm-1.25,7.5h2.5a3.751,3.751,0,0,1,3.751,3.751c0,2.942.1,2.187-.3,2.714-2.614,3.593-2.2,6.538-2.2,11.039a3.727,3.727,0,0,0-2.5.975,3.727,3.727,0,0,0-2.5-.975c0-4.517.414-7.444-2.214-11.055-.375-.506-.286.216-.286-2.7A3.751,3.751,0,0,1,36.255,37.256ZM14.11,28.121a1.2,1.2,0,0,1-.36-.868V18.5a5,5,0,0,1,5-5h5a5,5,0,0,1,5,5v8.752a1.25,1.25,0,1,1-2.5,0V21a1.25,1.25,0,1,0-2.5,0v6.251A3.693,3.693,0,0,0,25,30.019v8.427l-2.5-2.14V33.5a1.25,1.25,0,0,0-2.5,0v.781a5.552,5.552,0,0,0-2.5-.765v-3.5a3.693,3.693,0,0,0,1.25-2.767V21a1.25,1.25,0,0,0-2.5,0v6.251a1.25,1.25,0,0,1-2.14.868Zm-5.545,13.7L2.645,29.889a1.9,1.9,0,0,1,.92-2.431,1.967,1.967,0,0,1,2.7,1.028c3.98,7.152,5.2,9.435,5.552,9.792,2.9,2.982-4.085-3.975,8.338,8.324a1.25,1.25,0,0,0,1.758-1.778l-7.457-7.377.6-.589a3.084,3.084,0,0,1,3.865-.334c4.3,3.685,5.222,4.751,7.318,5.43A8.923,8.923,0,0,1,32.5,50.408v4.351H21.734C9.761,43.895,9.558,44.035,8.565,41.825ZM35,71.013H20a1.25,1.25,0,0,1-1.25-1.25V63.511H32.5a1.25,1.25,0,0,0,0-2.5H18.751v-2.5A1.25,1.25,0,0,1,20,57.26H35a1.25,1.25,0,0,1,1.25,1.25V69.763A1.25,1.25,0,0,1,35,71.013Zm20,0h-15a1.25,1.25,0,0,1-1.25-1.25V58.51a1.25,1.25,0,0,1,1.25-1.25h15a1.25,1.25,0,0,1,1.25,1.25v2.5H42.506a1.25,1.25,0,0,0,0,2.5H56.259v6.251A1.25,1.25,0,0,1,55.009,71.013ZM72.388,31.084,66.426,41.868c-1,2.217-1.27,2.112-13.149,12.892H42.506V50.408a8.924,8.924,0,0,1,6.261-8.451c2.14-.693,3.043-1.764,7.238-5.366a3.1,3.1,0,0,1,3.945.273l.6.588L53.1,44.829a1.25,1.25,0,0,0,1.758,1.778c1.465-1.45,8.721-8.586,8.338-8.324.125-.125.115-.235,5.507-8.468a2.085,2.085,0,0,1,1.2-1.19,1.925,1.925,0,0,1,2.484,2.461Z" transform="translate(0 2.503)"/></g></svg>