<svg xmlns="http://www.w3.org/2000/svg" width="75" height="74.997" viewBox="0 0 75 74.997"><defs><style>.a{fill:#dc6b2f;}</style></defs><g transform="translate(0.001 -0.499)"><path class="a" d="M73.79,10.174H70.069a11.062,11.062,0,0,0-3.957-7.223A10.828,10.828,0,0,0,48.6,9.357c-.052.273-.086.545-.117.816H26.52a11.062,11.062,0,0,0-3.957-7.223A10.828,10.828,0,0,0,5.048,9.359c-.052.272-.086.544-.117.815H1.209A1.208,1.208,0,0,0,0,11.383V67.029a1.209,1.209,0,0,0,1.21,1.21H33.87v6.048a1.209,1.209,0,0,0,1.21,1.21H66.532a1.209,1.209,0,0,0,1.21-1.21V68.238H73.79A1.209,1.209,0,0,0,75,67.029V11.383a1.208,1.208,0,0,0-1.21-1.21ZM50.974,9.812a8.489,8.489,0,0,1,6.594-6.726,8.306,8.306,0,0,1,7.009,1.736,8.626,8.626,0,0,1,3.042,5.351H65.167A6.12,6.12,0,0,0,63,6.726a6.019,6.019,0,0,0-9.615,3.411,6.2,6.2,0,0,0,3.849,7.2,1.181,1.181,0,0,1,.83,1.078V18.7a1.178,1.178,0,0,1-.479.951.971.971,0,0,1-.887.15,8.723,8.723,0,0,1-5.724-9.989Zm11.647.361H55.895a3.646,3.646,0,0,1,2.513-2.23,3.58,3.58,0,0,1,3.087.677,3.693,3.693,0,0,1,1.126,1.552Zm-55.2-.361a8.489,8.489,0,0,1,6.594-6.726,8.306,8.306,0,0,1,7.009,1.736,8.626,8.626,0,0,1,3.043,5.351H21.619a6.12,6.12,0,0,0-2.168-3.448,6.019,6.019,0,0,0-9.615,3.411,6.2,6.2,0,0,0,3.849,7.2,1.181,1.181,0,0,1,.83,1.078V18.7a1.178,1.178,0,0,1-.479.951.972.972,0,0,1-.887.15A8.723,8.723,0,0,1,7.426,9.812Zm11.647.361H12.347a3.646,3.646,0,0,1,2.513-2.23,3.581,3.581,0,0,1,3.087.677,3.694,3.694,0,0,1,1.126,1.552ZM4.9,12.593a11.054,11.054,0,0,0,7.5,9.51,3.369,3.369,0,0,0,3.057-.493A3.6,3.6,0,0,0,16.935,18.7v-.281a3.571,3.571,0,0,0-2.423-3.352,3.712,3.712,0,0,1-2.266-2.476h36.2a11.052,11.052,0,0,0,7.5,9.51,3.369,3.369,0,0,0,3.057-.493A3.606,3.606,0,0,0,60.483,18.7v-.281a3.571,3.571,0,0,0-2.423-3.352,3.712,3.712,0,0,1-2.266-2.476H72.58v12.1H2.419v-12.1ZM64.112,56.142a1.21,1.21,0,0,1,1.21,1.21V63.4h0a1.716,1.716,0,0,1-1.206-.5l-.711-.711a4.23,4.23,0,0,0-5.838,0l-.711.711a1.769,1.769,0,0,1-2.417,0l-.711-.711a4.23,4.23,0,0,0-5.838,0l-.711.711a1.769,1.769,0,0,1-2.417,0l-.711-.711a4.23,4.23,0,0,0-5.838,0L37.5,62.9a1.716,1.716,0,0,1-1.206.5h0V57.351a1.21,1.21,0,0,1,1.21-1.21ZM36.29,73.077V65.819h0a4.093,4.093,0,0,0,2.917-1.208l.711-.711a1.771,1.771,0,0,1,2.417,0l.711.711a4.227,4.227,0,0,0,5.838,0L49.6,63.9a1.771,1.771,0,0,1,2.417,0l.711.711a4.227,4.227,0,0,0,5.838,0l.711-.711a1.771,1.771,0,0,1,2.417,0l.711.711a4.1,4.1,0,0,0,2.917,1.208h0v7.258Zm31.452-7.258V57.351a3.634,3.634,0,0,0-3.629-3.629h-12.1V51.3h.208a3.6,3.6,0,0,0,2.566-1.063,7.05,7.05,0,0,0,0-9.97l-3.128-3.128a1.208,1.208,0,0,0-1.711,0l-3.128,3.128a7.05,7.05,0,0,0,0,9.97A3.6,3.6,0,0,0,49.388,51.3H49.6v2.419H37.5a3.634,3.634,0,0,0-3.629,3.629v8.468H2.419V27.109H72.58v38.71ZM49.388,48.883a1.213,1.213,0,0,1-.855-.354,4.632,4.632,0,0,1,0-6.549l2.273-2.273,2.273,2.273a4.632,4.632,0,0,1,0,6.549,1.215,1.215,0,0,1-.855.354Zm0,0" transform="translate(0 0)"/><path class="a" d="M40.468,192.48H33.21A1.208,1.208,0,0,0,32,193.69v7.258a1.209,1.209,0,0,0,1.21,1.21h7.258a1.209,1.209,0,0,0,1.21-1.21V193.69A1.208,1.208,0,0,0,40.468,192.48Zm-1.21,7.258H34.419V194.9h4.839Zm0,0" transform="translate(-27.162 -162.951)"/><path class="a" d="M120.468,192.48H113.21a1.208,1.208,0,0,0-1.21,1.21v7.258a1.209,1.209,0,0,0,1.21,1.21h7.258a1.209,1.209,0,0,0,1.21-1.21V193.69A1.208,1.208,0,0,0,120.468,192.48Zm-1.21,7.258h-4.839V194.9h4.839Zm0,0" transform="translate(-95.065 -162.951)"/><path class="a" d="M200.468,192.48H193.21a1.208,1.208,0,0,0-1.21,1.21v7.258a1.209,1.209,0,0,0,1.21,1.21h7.258a1.209,1.209,0,0,0,1.21-1.21V193.69A1.208,1.208,0,0,0,200.468,192.48Zm-1.21,7.258h-4.839V194.9h4.839Zm0,0" transform="translate(-162.968 -162.951)"/><path class="a" d="M280.468,192.48H273.21a1.208,1.208,0,0,0-1.21,1.21v7.258a1.209,1.209,0,0,0,1.21,1.21h3.629v-2.419h-2.419V194.9h4.839v2.419h2.419V193.69A1.208,1.208,0,0,0,280.468,192.48Zm0,0" transform="translate(-230.872 -162.951)"/><path class="a" d="M40.468,272.48H33.21A1.208,1.208,0,0,0,32,273.69v7.258a1.209,1.209,0,0,0,1.21,1.21h7.258a1.209,1.209,0,0,0,1.21-1.21V273.69A1.208,1.208,0,0,0,40.468,272.48Zm-1.21,7.258H34.419V274.9h4.839Zm0,0" transform="translate(-27.162 -230.855)"/><path class="a" d="M120.468,272.48H113.21a1.208,1.208,0,0,0-1.21,1.21v7.258a1.209,1.209,0,0,0,1.21,1.21h7.258a1.209,1.209,0,0,0,1.21-1.21V273.69A1.208,1.208,0,0,0,120.468,272.48Zm-1.21,7.258h-4.839V274.9h4.839Zm0,0" transform="translate(-95.065 -230.855)"/><path class="a" d="M40.468,352.48H33.21A1.208,1.208,0,0,0,32,353.69v7.258a1.209,1.209,0,0,0,1.21,1.21h7.258a1.209,1.209,0,0,0,1.21-1.21V353.69A1.208,1.208,0,0,0,40.468,352.48Zm-1.21,7.258H34.419V354.9h4.839Zm0,0" transform="translate(-27.162 -298.758)"/><path class="a" d="M120.468,352.48H113.21a1.208,1.208,0,0,0-1.21,1.21v7.258a1.209,1.209,0,0,0,1.21,1.21h7.258a1.209,1.209,0,0,0,1.21-1.21V353.69A1.208,1.208,0,0,0,120.468,352.48Zm-1.21,7.258h-4.839V354.9h4.839Zm0,0" transform="translate(-95.065 -298.758)"/><path class="a" d="M200.93,272.571a1.208,1.208,0,0,0-1.318.262l-7.258,7.258a1.21,1.21,0,0,0,.855,2.065h7.258a1.209,1.209,0,0,0,1.21-1.21v-7.258A1.208,1.208,0,0,0,200.93,272.571Zm-1.673,7.166h-3.128l3.128-3.128Zm0,0" transform="translate(-162.967 -230.854)"/></g></svg>