<svg xmlns="http://www.w3.org/2000/svg" width="64" height="40" viewBox="0 0 64 40"><defs><style>.a{fill:#265697;}.a,.b,.c,.d{fill-rule:evenodd;}.b{fill:#dfac16;}.c{fill:#bf3126;}.d{fill:#fff;}</style></defs><g transform="translate(0 0)"><path class="a" d="M60.2,0H4.2A3.441,3.441,0,0,0,1,3.2v32Q1,40,5.8,40H60.2Q65,40,65,35.2V4.8Q65,0,60.2,0Zm0,0" transform="translate(-1 0)"/><path class="b" d="M100.594,25.248a16.651,16.651,0,1,1-33.3.009v-.009a16.651,16.651,0,1,1,33.3-.009v.009Zm0,0" transform="translate(-40.776 -5.048)"/><path class="c" d="M28,8.425a16.832,16.832,0,0,0,.107,33.66,16.491,16.491,0,0,0,11.2-4.385h0A16.91,16.91,0,0,0,41,35.9H37.591a16.433,16.433,0,0,1-1.241-1.734h5.883a16.916,16.916,0,0,0,.969-1.8H35.378a16.7,16.7,0,0,1-.7-1.768H43.9a17.079,17.079,0,0,0,.473-8.942H34.193a16.93,16.93,0,0,1,.475-1.768h9.22a16.941,16.941,0,0,0-.718-1.8H35.377a16.2,16.2,0,0,1,.955-1.768h5.879a16.869,16.869,0,0,0-1.292-1.8H37.641a15.542,15.542,0,0,1,1.67-1.7A16.494,16.494,0,0,0,28.1,8.425Zm0,0" transform="translate(-7.273 -5.055)"/><path class="d" d="M63.937,49.38l.222-1.523c-.121,0-.3.052-.457.052-.617,0-.685-.332-.646-.577l.5-3.108h.938l.226-1.685h-.884l.18-1.048H62.242C62.2,41.532,61.2,47.385,61.2,48.1a1.323,1.323,0,0,0,1.413,1.517,4.619,4.619,0,0,0,1.329-.235Zm0,0" transform="translate(-37.117 -24.895)"/><path class="d" d="M69.454,47.748a2.8,2.8,0,0,0,3.063,3.134,4.47,4.47,0,0,0,1.873-.294L74.7,48.86a5.473,5.473,0,0,1-1.883.44c-1.9,0-1.57-1.435-1.57-1.435h3.6a13.019,13.019,0,0,0,.233-1.634,2.392,2.392,0,0,0-2.528-2.619c-1.783,0-3.1,1.942-3.1,4.136Zm3.109-2.531c1,0,.816,1.136.816,1.228H71.41c0-.117.186-1.228,1.152-1.228Zm0,0" transform="translate(-42.072 -26.168)"/><path class="d" d="M98.18,48.265l.317-1.954a4.233,4.233,0,0,1-1.467.441c-1.258,0-1.762-.971-1.762-2.013,0-2.115,1.082-3.279,2.286-3.279a3.135,3.135,0,0,1,1.628.513l.29-1.9a6.311,6.311,0,0,0-2-.44c-2.047,0-4.038,1.795-4.038,5.165,0,2.235,1.075,3.711,3.191,3.711a8.1,8.1,0,0,0,1.551-.245Zm0,0" transform="translate(-56.463 -23.781)"/><path class="d" d="M38.731,43.682a6.067,6.067,0,0,0-2.148.395l-.257,1.544a5.544,5.544,0,0,1,1.932-.316c.66,0,1.143.075,1.143.617a1.156,1.156,0,0,1-.059.451s-.521-.044-.762-.044c-1.533,0-3.144.661-3.144,2.655a1.692,1.692,0,0,0,1.712,1.932,2.3,2.3,0,0,0,1.819-.823l-.058.685h1.561l.7-4.935a2.1,2.1,0,0,0-2.434-2.161Zm.38,4.018c.034.3-.187,1.714-1.254,1.714a.65.65,0,0,1-.694-.677c0-.49.264-1.079,1.563-1.079a1.118,1.118,0,0,1,.385.041Zm0,0" transform="translate(-21.662 -26.209)"/><path class="d" d="M50.923,50.9c.4,0,2.682.1,2.682-2.278,0-2.226-2.113-1.786-2.113-2.68,0-.445.344-.585.974-.585.25,0,1.212.08,1.212.08l.224-1.582a8.188,8.188,0,0,0-1.636-.141c-1.311,0-2.643.529-2.643,2.34,0,2.052,2.22,1.846,2.22,2.71,0,.577-.62.624-1.1.624a5.734,5.734,0,0,1-1.574-.273l-.236,1.566a5.571,5.571,0,0,0,1.989.22Zm0,0" transform="translate(-29.76 -26.226)"/><path class="d" d="M134.4,40.129l-.382,2.4A2.339,2.339,0,0,0,132.3,41.6c-1.624,0-2.978,1.98-2.978,4.254,0,1.468.722,2.907,2.2,2.907a2.208,2.208,0,0,0,1.65-.748l-.078.639h1.724l1.354-8.521-1.777,0Zm-.823,4.676c0,.946-.464,2.211-1.425,2.211-.638,0-.937-.541-.937-1.391,0-1.389.617-2.306,1.4-2.306.638,0,.966.443.966,1.486Zm0,0" transform="translate(-77.994 -24.075)"/><path class="d" d="M17.111,48.649l1.079-6.433.158,6.433H19.57l2.279-6.433L20.84,48.649h1.815l1.4-8.533H21.246L19.5,45.351l-.091-5.235H16.82L15.4,48.649Zm0,0" transform="translate(-9.641 -24.069)"/><path class="d" d="M85.231,50.925c.516-2.966.612-5.375,1.843-4.934a6.945,6.945,0,0,1,.659-2.078,1.85,1.85,0,0,0-.342-.023c-.794,0-1.382,1.1-1.382,1.1l.158-1.007H84.516L83.41,50.925Zm0,0" transform="translate(-50.446 -26.334)"/><path class="d" d="M110.577,43.682a6.065,6.065,0,0,0-2.148.395l-.257,1.544a5.545,5.545,0,0,1,1.932-.316c.66,0,1.142.075,1.142.617a1.163,1.163,0,0,1-.059.451s-.52-.044-.762-.044c-1.533,0-3.144.661-3.144,2.655a1.692,1.692,0,0,0,1.711,1.932,2.3,2.3,0,0,0,1.819-.823l-.058.685h1.561l.7-4.935a2.1,2.1,0,0,0-2.434-2.161Zm.38,4.018c.034.3-.187,1.714-1.255,1.714a.649.649,0,0,1-.693-.677c0-.49.264-1.079,1.562-1.079a1.122,1.122,0,0,1,.386.041Zm0,0" transform="translate(-64.769 -26.209)"/><path class="d" d="M122.441,50.925c.516-2.966.612-5.375,1.843-4.934a6.959,6.959,0,0,1,.659-2.078,1.85,1.85,0,0,0-.342-.023c-.794,0-1.382,1.1-1.382,1.1l.158-1.007h-1.65l-1.106,6.946Zm0,0" transform="translate(-72.773 -26.334)"/></g></svg>