<svg xmlns="http://www.w3.org/2000/svg" width="97" height="97" viewBox="0 0 97 97"><defs><style>.a{fill:#fb7c0b;}.a,.b{stroke:#fb7c0b;}.b,.d{fill:none;}.b{stroke-width:4px;}.c{stroke:none;}</style></defs><g transform="translate(-256 -1727)"><path class="a" d="M184.025,105.956a5.1,5.1,0,0,0-2.812.842v-1.579a5.141,5.141,0,0,0-7.961-4.3v-.39a5.139,5.139,0,0,0-7.953-4.3V84.788a5.328,5.328,0,1,0-10.656,0v21.351l-3.652,3.827a16.023,16.023,0,0,0-4.4,10.4c-.472,11.428.873,13.189,1.3,13.739l6.03,8.4V147.1a1.169,1.169,0,0,0,2.339,0v-4.969a1.169,1.169,0,0,0-.218-.68l-6.269-8.733c-.585-.77-1.16-4.441-.836-12.252a13.684,13.684,0,0,1,3.751-8.894l1.957-2.058V124.04a1.169,1.169,0,1,0,2.339,0V84.788a2.993,2.993,0,1,1,5.987,0v26.591a1.169,1.169,0,0,0,2.339,0V100.524a2.812,2.812,0,1,1,5.622,0v10.2a1.169,1.169,0,1,0,2.339,0v-5.505a2.814,2.814,0,0,1,5.626,0v9.107a1.169,1.169,0,1,0,2.339,0V111.1a2.812,2.812,0,1,1,5.624,0v12.061c0,5.589-2.183,13.429-6.351,17.6a1.169,1.169,0,0,0-.341.824V147.1a1.169,1.169,0,1,0,2.339,0v-5.04c4.4-4.693,6.692-12.979,6.692-18.9V111.1a5.151,5.151,0,0,0-5.166-5.147Z" transform="translate(185.725 1611.095) rotate(20)"/><g class="b" transform="translate(256 1727)"><circle class="c" cx="48.5" cy="48.5" r="48.5"/><circle class="d" cx="48.5" cy="48.5" r="46.5"/></g></g></svg>