<svg xmlns="http://www.w3.org/2000/svg" width="97" height="97" viewBox="0 0 97 97"><defs><style>.a{fill:#fb7c0b;}.a,.b{stroke:#fb7c0b;}.b,.d{fill:none;}.b{stroke-width:4px;}.c{stroke:none;}</style></defs><g transform="translate(-1029 -1727)"><path class="a" d="M167.928,135.463a5.138,5.138,0,0,0-3.22-9.134h-9.637c2.716-3.267,7.681-10.054,7.218-15.517-.643-7.629-5.009-8.786-5.193-8.832a1.142,1.142,0,0,0-1.231.489l-3.852,5.987c-2.251,3.5-7.387,6.933-11.051,8.229-8.754,3.1-11.9,7.8-12.838,9.644h-14.2a1.142,1.142,0,1,0,0,2.284h14.935a1.142,1.142,0,0,0,1.077-.761c.021-.057,2.059-5.568,11.783-9.007,3.968-1.4,9.6-5.085,12.208-9.144l3.3-5.138c.915.641,2.436,2.314,2.784,6.449.476,5.614-6.385,13.574-7.962,15.325h-1.4a5.138,5.138,0,0,0-5.11,4.636.954.954,0,0,0-.063.143c-2.664,8.027-8.895,8.682-9.18,8.706a1.143,1.143,0,0,0,.093,2.284h.089a12.37,12.37,0,0,0,6.794-3.235,5.43,5.43,0,0,0-.04.613,5.138,5.138,0,0,0,2.284,4.263,5.111,5.111,0,0,0-.322,7.119,5.125,5.125,0,0,0-1.972,7.445H137.5a8.533,8.533,0,0,1-6-2.5,10.7,10.7,0,0,0-7.612-3.153h-5.84a1.142,1.142,0,1,0,0,2.284h5.838a8.438,8.438,0,0,1,6,2.485,10.687,10.687,0,0,0,7.612,3.155h21.767a5.138,5.138,0,0,0,4.249-8.015,5.125,5.125,0,0,0,3.425-8.491,5.125,5.125,0,0,0,.982-8.613Zm-17.277-6.851h14.057a2.854,2.854,0,1,1,0,5.709H150.652a2.854,2.854,0,0,1,0-5.709Zm8.617,29.687H147.491a2.854,2.854,0,0,1,0-5.709h11.78a2.854,2.854,0,0,1,0,5.709Zm3.823-7.993H149.033a2.854,2.854,0,0,1,0-5.709h14.061a2.854,2.854,0,0,1,0,5.709Zm1.619-7.993H148.372a2.854,2.854,0,0,1,0-5.709H164.71a2.855,2.855,0,0,1,0,5.709Z" transform="translate(927.59 1642.826)"/><g class="b" transform="translate(1029 1727)"><circle class="c" cx="48.5" cy="48.5" r="48.5"/><circle class="d" cx="48.5" cy="48.5" r="46.5"/></g></g></svg>