<svg xmlns="http://www.w3.org/2000/svg" width="97" height="97" viewBox="0 0 97 97"><defs><style>.a{fill:#fb7c0b;}.a,.b{stroke:#fb7c0b;}.b,.d{fill:none;}.b{stroke-width:4px;}.c{stroke:none;}</style></defs><g transform="translate(-623 -1727)"><path class="a" d="M145.193,143.413H134.163a1.023,1.023,0,0,0-.846.449c-3.019,4.479-5.928,5.2-5.877,5.218h-3.761a3.146,3.146,0,0,0,.045-.916,4.269,4.269,0,0,0-3.631-3.71,3.648,3.648,0,0,0,.02-1.972,4.772,4.772,0,0,0-2.874-3.189l.107-.112a1,1,0,0,0,.23-.409,28.665,28.665,0,0,0,9.675-.187,1.019,1.019,0,0,0-.382-2c-9.922,1.892-17.428-2.229-21.465-4.429-2.118-1.168-3.4-1.865-4.133-.667-2.964,4.871-6.672,5.765-9.2,5.658a.537.537,0,0,1-.442-.265.605.605,0,0,1-.038-.575l4.6-10.29a4.811,4.811,0,0,1,3.9-2.816l19.223-1.543a1.019,1.019,0,0,0,.936-1.1,1,1,0,0,0-.926-.912l3.6-3.6,9.353,4.55a1.016,1.016,0,0,0,.447.1l13.855.48a1.021,1.021,0,1,0,0-2.04l-13.617-.48-8.507-4.138,4.17-4.178a5.631,5.631,0,0,0,0-7.955,5.761,5.761,0,0,0-7.953,0l-7.089,7.088a7.309,7.309,0,0,0-3.1-.032L94.49,114.517a8.128,8.128,0,0,0-5.233,5.159l-4.767,14.3a1.021,1.021,0,0,0,.931,1.343h.314a18.592,18.592,0,0,0,2.152-.148l-3.056,3.056a.99.99,0,0,0-.22.334L79.976,149.7a1.023,1.023,0,0,0,1.334,1.334L92.462,146.4a1.051,1.051,0,0,0,.334-.22l5-5c.167.143.334.312.512.44a6.323,6.323,0,0,0,4.58,5.852,5.271,5.271,0,0,0,1.211,3.071,6.242,6.242,0,0,0,4.772,1.922l1.184.037c1.4.045,2.739.077,3.988.077,3.67,0,6.6-.292,8.262-1.448l5.318-.017c.148-.027,3.57-.717,7.066-5.648h10.5a1.021,1.021,0,1,0,0-2.04ZM122.118,103.83a3.672,3.672,0,0,1,5.071,0,3.591,3.591,0,0,1,0,5.073l-10.961,10.959-11.026.886Zm-35.226,29.4,4.3-12.909a6.083,6.083,0,0,1,3.915-3.857l15.88-5.048a4.7,4.7,0,0,1,.717-.063l-9.646,9.655-2.155.167a6.854,6.854,0,0,0-5.578,4.015l-2.872,6.419-.7.694A11.254,11.254,0,0,1,86.892,133.232Zm4.6,11.364-8.674,3.611,3.6-8.682,3.1-3.1a2.631,2.631,0,0,0,.375,1.525,2.6,2.6,0,0,0,2.09,1.238h.445a11.263,11.263,0,0,0,6.929-2.467Zm7.736-4.851,5.588-5.59a39.983,39.983,0,0,0,10.509,4.193l-.39.4a5.753,5.753,0,0,1-3.825,1.76l-8.04.48A5.681,5.681,0,0,1,99.227,139.746Zm1.3,2.949a7.757,7.757,0,0,0,2.187.35q.237,0,.475-.015l8.042-.48a7.761,7.761,0,0,0,4.3-1.638,3.045,3.045,0,0,1,2.612,2.122,1.615,1.615,0,0,1-.187,1.3,1.7,1.7,0,0,1-1.118.774c-3.031.587-8.674,1.456-12.335.726C101.841,145.3,100.876,143.838,100.53,142.7Zm20.921,6.505c-1.456,1.568-7.389,1.373-11.313,1.253l-1.193-.038a4.35,4.35,0,0,1-3.273-1.2,2.981,2.981,0,0,1-.639-1.256,21.177,21.177,0,0,0,2.807.192,52.85,52.85,0,0,0,9.4-1.039,3.715,3.715,0,0,0,1.653-.8c.769.05,2.627.345,2.811,2.075A.954.954,0,0,1,121.451,149.2Z" transform="translate(557.73 1644.98)"/><g class="b" transform="translate(623 1727)"><circle class="c" cx="48.5" cy="48.5" r="48.5"/><circle class="d" cx="48.5" cy="48.5" r="46.5"/></g></g></svg>