<svg xmlns="http://www.w3.org/2000/svg" width="64.338" height="40" viewBox="0 0 64.338 40"><defs><style>.a{fill:#f6f6f6;}.b{fill:#265697;}.b,.c{fill-rule:evenodd;}.c{fill:#d97b16;}</style></defs><g transform="translate(0 0)"><rect class="a" width="64" height="32" transform="translate(0.338 4)"/><path class="b" d="M59.2,0H3.2A3.441,3.441,0,0,0,0,3.2V8H64V4.8Q64,0,59.2,0Zm0,0" transform="translate(0 0)"/><path class="c" d="M0,80s0,0,0,3.2S1.6,88,4.8,88H59.2Q64,88,64,83.2V80Zm0,0" transform="translate(0 -48)"/><path class="b" d="M91.237,28.713A11.474,11.474,0,0,0,87.179,28c-4.473,0-7.625,2.3-7.652,5.6-.025,2.439,2.25,3.8,3.967,4.611,1.762.832,2.355,1.362,2.346,2.105-.011,1.138-1.407,1.657-2.709,1.657a9.319,9.319,0,0,1-4.262-.891l-.583-.27-.635,3.8a14.062,14.062,0,0,0,5.043.905c4.759,0,7.849-2.276,7.884-5.8.017-1.931-1.189-3.4-3.8-4.611-1.582-.785-2.552-1.309-2.541-2.1,0-.705.82-1.46,2.593-1.46a8.2,8.2,0,0,1,3.389.65l.406.2.614-3.679" transform="translate(-46.591 -16.8)"/><path class="b" d="M121.749,28.778h-3.5a2.246,2.246,0,0,0-2.37,1.407L109.156,45.74h4.754s.778-2.091.953-2.551l5.8.007c.135.594.551,2.543.551,2.543h4.2l-3.664-16.962Zm-5.582,10.94c.374-.978,1.8-4.745,1.8-4.745-.027.045.372-.983.6-1.62l.306,1.463s.867,4.051,1.048,4.9Zm0,0" transform="translate(-65.494 -17.267)"/><path class="b" d="M59.25,45.71l2.831-16.972h4.527L63.775,45.71Zm0,0" transform="translate(-35.55 -17.242)"/><path class="b" d="M32.994,28.768,28.562,40.342,28.09,37.99a13.154,13.154,0,0,0-6.27-7.12l4.053,14.843,4.79-.006,7.128-16.94h-4.8" transform="translate(-13.092 -17.261)"/><path class="c" d="M17.358,28.742h-7.3L10,29.1c5.68,1.4,9.438,4.8,11,8.879l-1.587-7.8a1.9,1.9,0,0,0-2.052-1.433" transform="translate(-6 -17.245)"/></g></svg>