<svg xmlns="http://www.w3.org/2000/svg" width="50.885" height="70.129" viewBox="0 0 50.885 70.129"><defs><style>.a{fill:#9aa5b1;}.b{fill:#7b8794;}.c{fill:#dcae2f;}.d{fill:#dc6b2f;}.e{fill:#c05131;}.f{fill:#dbcff1;}.g{fill:#c4b0e8;}.h{fill:#373737;}</style></defs><path class="a" d="M98.09,19.5V31.506h6.289V19.5a5.718,5.718,0,1,1,11.435,0V31.506H122.1V19.5a12.007,12.007,0,0,0-24.014,0Zm0,0" transform="translate(-84.654 -6.466)"/><path class="b" d="M188.6,19.5V31.5h-2.908V19.5A12.007,12.007,0,0,0,175.136,7.577a11.852,11.852,0,0,1,1.454-.089A12.006,12.006,0,0,1,188.6,19.5Zm0,0" transform="translate(-151.148 -6.463)"/><path class="c" d="M51.869,226.875H11.947a4.455,4.455,0,0,1-4.455-4.455V187.268a4.455,4.455,0,0,1,4.455-4.455H51.869a4.456,4.456,0,0,1,4.456,4.455V222.42A4.456,4.456,0,0,1,51.869,226.875Zm0,0" transform="translate(-6.466 -157.773)"/><path class="d" d="M308.576,187.264v35.153a4.456,4.456,0,0,1-4.455,4.455h-4.343a4.456,4.456,0,0,0,4.455-4.455V187.264a4.456,4.456,0,0,0-4.455-4.455h4.343A4.456,4.456,0,0,1,308.576,187.264Zm0,0" transform="translate(-258.717 -157.769)"/><path class="d" d="M56.326,194.958H7.493v-7.691a4.455,4.455,0,0,1,4.455-4.455H51.87a4.455,4.455,0,0,1,4.455,4.455v7.691Zm0,0" transform="translate(-6.467 -157.772)"/><path class="e" d="M308.572,187.264v7.691h-4.343v-7.691a4.456,4.456,0,0,0-4.456-4.455h4.343A4.456,4.456,0,0,1,308.572,187.264Zm0,0" transform="translate(-258.714 -157.769)"/><path class="a" d="M163.222,330.062a4.251,4.251,0,0,0-4.735-4.224,4.25,4.25,0,0,0-2.124,7.58,1.4,1.4,0,0,1,.532,1.106v2.457a2.076,2.076,0,1,0,4.151,0v-2.457a1.421,1.421,0,0,1,.546-1.117A4.24,4.24,0,0,0,163.222,330.062Zm0,0" transform="translate(-133.529 -281.186)"/><path class="b" d="M180.588,330.056a4.238,4.238,0,0,1-1.629,3.345,1.421,1.421,0,0,0-.545,1.118v2.457a2.076,2.076,0,0,1-3.57,1.441,2.072,2.072,0,0,0,1.482-1.989v-2.457a1.425,1.425,0,0,1,.546-1.118,4.25,4.25,0,0,0-.534-7.049A4.25,4.25,0,0,1,180.588,330.056Zm0,0" transform="translate(-150.895 -281.179)"/><g transform="translate(13.294 28.614)"><path class="f" d="M102.052,211.408a2.5,2.5,0,1,1-2.5-2.5A2.5,2.5,0,0,1,102.052,211.408Zm0,0" transform="translate(-97.055 -208.91)"/><path class="f" d="M172.506,211.408a2.5,2.5,0,1,1-2.5-2.5A2.5,2.5,0,0,1,172.506,211.408Zm0,0" transform="translate(-157.858 -208.91)"/><path class="f" d="M242.962,211.408a2.5,2.5,0,1,1-2.5-2.5A2.5,2.5,0,0,1,242.962,211.408Zm0,0" transform="translate(-218.664 -208.91)"/></g><path class="g" d="M103.768,212.009a2.5,2.5,0,0,1-4.725,1.134,2.5,2.5,0,0,0,2.911-3.538A2.5,2.5,0,0,1,103.768,212.009Zm0,0" transform="translate(-85.477 -180.896)"/><path class="g" d="M174.219,212.015a2.5,2.5,0,0,1-4.727,1.134,2.5,2.5,0,0,0,2.914-3.537,2.5,2.5,0,0,1,1.813,2.4Zm0,0" transform="translate(-146.277 -180.902)"/><path class="g" d="M244.668,212.009a2.5,2.5,0,0,1-4.727,1.133,2.427,2.427,0,0,0,.687.1,2.5,2.5,0,0,0,2.227-3.633A2.5,2.5,0,0,1,244.668,212.009Zm0,0" transform="translate(-207.076 -180.896)"/><path class="h" d="M45.4,24.014H38.475v-5.5a1.026,1.026,0,0,0-2.052,0v5.5H32.186V13.033a6.744,6.744,0,1,0-13.488,0V24.014H14.461V13.033a10.981,10.981,0,0,1,21.917-.994,1.026,1.026,0,0,0,2.044-.184,13.033,13.033,0,0,0-26.013,1.178V24.014H5.481A5.487,5.487,0,0,0,0,29.495V41.562a1.026,1.026,0,0,0,2.052,0v-3.35H48.833V64.647a3.433,3.433,0,0,1-3.43,3.43H5.481a3.433,3.433,0,0,1-3.43-3.43V47.717a1.026,1.026,0,0,0-2.052,0v16.93a5.488,5.488,0,0,0,5.481,5.481H45.4a5.488,5.488,0,0,0,5.481-5.481V29.495A5.487,5.487,0,0,0,45.4,24.014ZM20.75,13.033a4.692,4.692,0,1,1,9.384,0V24.014H20.75ZM48.833,36.16H2.051V29.495a3.433,3.433,0,0,1,3.43-3.43H45.4a3.433,3.433,0,0,1,3.43,3.43Zm0,0" transform="translate(0 0)"/><path class="h" d="M152.508,333.624a3.105,3.105,0,0,0,3.1-3.1v-2.458a.394.394,0,0,1,.152-.31,5.275,5.275,0,0,0,.265-8.083,5.3,5.3,0,0,0-4.116-1.312,5.276,5.276,0,0,0-2.64,9.409.374.374,0,0,1,.135.3v2.458A3.105,3.105,0,0,0,152.508,333.624ZM149.3,323.25a3.183,3.183,0,0,1,2.834-2.851,3.389,3.389,0,0,1,.374-.021,3.188,3.188,0,0,1,2.148.822,3.224,3.224,0,0,1-.162,4.941,2.432,2.432,0,0,0-.938,1.924v2.458a1.05,1.05,0,0,1-2.1,0v-2.457a2.439,2.439,0,0,0-.927-1.916A3.221,3.221,0,0,1,149.3,323.25Zm0,0" transform="translate(-127.066 -274.726)"/><path class="h" d="M93.087,201.418a3.525,3.525,0,1,0,3.525,3.524A3.529,3.529,0,0,0,93.087,201.418Zm0,5a1.473,1.473,0,1,1,1.473-1.473A1.475,1.475,0,0,1,93.087,206.415Zm0,0" transform="translate(-77.295 -173.83)"/><path class="h" d="M163.544,201.418a3.525,3.525,0,1,0,3.524,3.524A3.528,3.528,0,0,0,163.544,201.418Zm0,5a1.473,1.473,0,1,1,1.472-1.473A1.475,1.475,0,0,1,163.544,206.415Zm0,0" transform="translate(-138.102 -173.83)"/><path class="h" d="M234,201.418a3.525,3.525,0,1,0,3.525,3.524A3.528,3.528,0,0,0,234,201.418Zm0,5a1.473,1.473,0,1,1,1.473-1.473A1.474,1.474,0,0,1,234,206.415Zm0,0" transform="translate(-198.908 -173.83)"/></svg>