<svg xmlns="http://www.w3.org/2000/svg" width="30.876" height="24.701" viewBox="0 0 30.876 24.701"><defs><style>.a,.b{fill:none;stroke-linejoin:round;}.a{stroke-linecap:round;}.b{stroke:#1b365d;stroke-width:2px;}.c,.d{stroke:none;}.d{fill:#1b365d;}</style></defs><g class="a" transform="translate(-3 -6)"><path class="c" d="M6.088,6h24.7a3.1,3.1,0,0,1,3.088,3.088V27.613A3.1,3.1,0,0,1,30.789,30.7H6.088A3.1,3.1,0,0,1,3,27.613V9.088A3.1,3.1,0,0,1,6.088,6Z"/><path class="d" d="M 6.087614059448242 8.000003814697266 C 5.498064041137695 8.000003814697266 5.000003814697266 8.498064041137695 5.000003814697266 9.087614059448242 L 5.000003814697266 27.61330413818359 C 5.000003814697266 28.20285415649414 5.498064041137695 28.70092391967773 6.087614059448242 28.70092391967773 L 30.78854370117188 28.70092391967773 C 31.37809371948242 28.70092391967773 31.87616348266602 28.20285415649414 31.87616348266602 27.61330413818359 L 31.87616348266602 9.087614059448242 C 31.87616348266602 8.498064041137695 31.37809371948242 8.000003814697266 30.78854370117188 8.000003814697266 L 6.087614059448242 8.000003814697266 M 6.087614059448242 6.000003814697266 L 30.78854370117188 6.000003814697266 C 32.48673248291016 6.000003814697266 33.87616348266602 7.389423370361328 33.87616348266602 9.087614059448242 L 33.87616348266602 27.61330413818359 C 33.87616348266602 29.31150436401367 32.48673248291016 30.70092391967773 30.78854370117188 30.70092391967773 L 6.087614059448242 30.70092391967773 C 4.389423370361328 30.70092391967773 3.000003814697266 29.31150436401367 3.000003814697266 27.61330413818359 L 3.000003814697266 9.087614059448242 C 3.000003814697266 7.389423370361328 4.389423370361328 6.000003814697266 6.087614059448242 6.000003814697266 Z"/></g><path class="b" d="M31.4,9,17.2,22.1,3,9" transform="translate(-1.763 -5.256)"/></svg>