<svg xmlns="http://www.w3.org/2000/svg" width="20.727" height="14.999" viewBox="0 0 20.727 14.999"><defs><style>.a{fill:#fff;}</style></defs><path class="a" d="M20564.824,18a2.035,2.035,0,0,1-1.256-.437,2,2,0,0,1-.568-2.447h-4.988a2.017,2.017,0,0,1-3.076,2.447,2,2,0,0,1-.568-2.447h-.537a2.019,2.019,0,0,1-.057-4.037l-2.238-6.922h-.961a.578.578,0,0,1,0-1.156h1.455a.578.578,0,0,1,.568.475l2.35,7.6h12.033l2.637-6a.58.58,0,0,1,.7-.266c.438.188.438.473.385.649l-2.729,6.344a.57.57,0,0,1-.559.423h-13.531a.865.865,0,1,0,0,1.729h14.4a.578.578,0,1,1,0,1.156h-1.641a2.014,2.014,0,0,1-1.82,2.884Zm0-2.884a.865.865,0,1,0,.867.862A.863.863,0,0,0,20564.822,15.114Zm-8.633,0a.865.865,0,1,0,.867.862A.863.863,0,0,0,20556.189,15.114Z" transform="translate(-20550.002 -2.999)"/></svg>