<svg xmlns="http://www.w3.org/2000/svg" width="30" height="30" viewBox="0 0 30 30"><defs><style>.a{fill:#18871f;}</style></defs><path class="a" d="M25.507,6.609a14.871,14.871,0,0,0-23.4,17.94L0,32.25l7.882-2.069a14.821,14.821,0,0,0,7.1,1.808h.007A15.009,15.009,0,0,0,30,17.123,14.925,14.925,0,0,0,25.507,6.609ZM14.993,29.484A12.334,12.334,0,0,1,8.7,27.763L8.25,27.5,3.576,28.721l1.246-4.56-.295-.469a12.38,12.38,0,1,1,22.962-6.569A12.494,12.494,0,0,1,14.993,29.484ZM21.77,20.23c-.368-.187-2.2-1.085-2.538-1.205s-.589-.187-.837.188-.958,1.205-1.179,1.46-.435.281-.8.094a10.111,10.111,0,0,1-5.056-4.42c-.382-.656.382-.609,1.092-2.029a.688.688,0,0,0-.033-.65c-.094-.188-.837-2.016-1.145-2.759-.3-.723-.609-.623-.837-.636s-.462-.013-.71-.013a1.376,1.376,0,0,0-.991.462,4.174,4.174,0,0,0-1.3,3.1,7.277,7.277,0,0,0,1.513,3.844,16.6,16.6,0,0,0,6.348,5.612c2.357,1.018,3.281,1.1,4.46.931a3.8,3.8,0,0,0,2.5-1.768,3.107,3.107,0,0,0,.214-1.768C22.386,20.5,22.138,20.411,21.77,20.23Z" transform="translate(0 -2.25)"/></svg>