<svg xmlns="http://www.w3.org/2000/svg" xmlns:xlink="http://www.w3.org/1999/xlink" width="204.422" height="372.763" viewBox="0 0 204.422 372.763"><defs><style>.a{fill:url(#a);}.b{fill:url(#b);}.c{fill:#060d27;}.d{fill:url(#c);}.e{stroke:rgba(0,0,0,0);stroke-miterlimit:10;fill:url(#d);}.f{fill:#1b365d;opacity:0;}.g{fill:#094109;}.g,.i{mix-blend-mode:multiply;isolation:isolate;}.h{fill:url(#e);}.i{opacity:0.3;}.j{fill:url(#f);}</style><linearGradient id="a" x1="-4.587" y1="0.291" x2="-3.592" y2="0.291" gradientUnits="objectBoundingBox"><stop offset="0" stop-color="#444b8c"/><stop offset="0.996" stop-color="#26264f"/></linearGradient><linearGradient id="b" x1="0.636" y1="0.453" x2="-3.443" y2="4.039" gradientUnits="objectBoundingBox"><stop offset="0" stop-color="#ffc444"/><stop offset="0.996" stop-color="#f36f56"/></linearGradient><linearGradient id="c" x1="-4.276" y1="0.306" x2="-3.28" y2="0.306" xlink:href="#a"/><linearGradient id="d" x1="-8.824" y1="1.571" x2="-9.407" y2="-0.57" gradientUnits="objectBoundingBox"><stop offset="0" stop-color="#dc6b2f"/><stop offset="1" stop-color="#7b320b"/></linearGradient><linearGradient id="e" x1="0.971" y1="0.181" x2="-1.187" y2="1.884" xlink:href="#b"/><linearGradient id="f" x1="0.443" y1="0.013" x2="-2.024" y2="3.977" gradientUnits="objectBoundingBox"><stop offset="0" stop-color="#ff9085"/><stop offset="1" stop-color="#fb6fbb"/></linearGradient></defs><g transform="translate(-1374.418 -538.602)"><path class="a" d="M1482.167,960.06a4.194,4.194,0,0,0-1.5,2.743,1.825,1.825,0,0,0,.508,1.518,28.376,28.376,0,0,0,6.022,4.544c4.5,2.608,6.135,2.644,6.44,1.876s-1.861-3.257-3.712-5.425S1482.167,960.06,1482.167,960.06Z" transform="translate(-15.025 -59.811)"/><path class="b" d="M1570,554.26c11.276,18.632,11.327,40.266.745,53.036-5.111,6.167-16.51,14.864-29.818,15.073-6.342.1-9.486-1.786-11.729.305-5.69,5.309,1.336,29.787,14.7,34.863,17.387,6.6,50.7-17.646,55.876-48.636,4.923-29.468-17.713-52.311-20.576-55.112Z" transform="translate(-21.641 -2.087)"/><path class="c" d="M1374.942,635.945c.634-13.914,9.48-22.827,11.688-24.983,13.186-12.881,31.8-12.381,37.762-12.222,21.141.567,25.915,11.06,40.666,7.155,12.489-3.306,13.45-11.988,24.2-12.575,11.237-.614,23.024,8.171,27.743,18.155,9.1,19.247-5.1,49.243-25.355,58.3-21.047,9.406-32.431-11.042-71.02-5-14.074,2.2-22.321,6.448-31.443,1.295C1379.193,660.417,1374.436,647.04,1374.942,635.945Z" transform="matrix(0.995, 0.105, -0.105, 0.995, 77.317, -159.523)"/><path class="d" d="M1544.911,956.614a4.2,4.2,0,0,0-1.1,2.924,1.827,1.827,0,0,0,.713,1.433,28.342,28.342,0,0,0,6.593,3.667c4.821,1.96,6.442,1.771,6.637.967s-2.293-2.967-4.427-4.858S1544.911,956.614,1544.911,956.614Z" transform="translate(-23.999 -59.322)"/><path class="e" d="M40.678,364.371a42.62,42.62,0,0,0-.951-7.284,14.72,14.72,0,0,0,4.631-.157,41.883,41.883,0,0,0,.971,7.4,4.528,4.528,0,0,1-2.445.777A3.567,3.567,0,0,1,40.678,364.371Zm54.49-3.723a29.78,29.78,0,0,0-.588-5.341,15.146,15.146,0,0,0,4.4,0c.309,2.866.842,5.3.842,5.3a4.548,4.548,0,0,1-2.449.777A3.562,3.562,0,0,1,95.168,360.648ZM66.762,89.074c-9.16-.315-16.588-4.429-16.352-5.813.123-.765,2.506-.157,6.535-1.878,1.664-.711,5.834-2.443,8.168-6.573a13.375,13.375,0,0,0,1.508-4.348c-1.91-.863-2.783-2.28-2.346-3.653a2.167,2.167,0,0,1,.643-.939,2,2,0,0,1,1.785-.255,18.357,18.357,0,0,0-.711-3.289,3.025,3.025,0,0,0,1.2.657,3.326,3.326,0,0,1,.336-2.73c.455-.586.979-.461,2.633-1.27,1.809-.874,2.117-1.471,3.209-2.035a6.391,6.391,0,0,1,5.584-.168c3.936,2.35,4.988,16.5-.5,17.9a8.906,8.906,0,0,1-4.656-.033,6.042,6.042,0,0,0,.293.581c2.924,5,11.832,3.468,12.25,6.025.375,2.28-6.266,6.15-13.207,7.393a29.456,29.456,0,0,1-5.193.451C67.539,89.1,67.148,89.091,66.762,89.074ZM8.945,14.877S8.924,11.9,5.332,9.8-.715-.538.186.6,8.877,5.639,11.322,7.9s.322,7.067.061,7.067ZM126.408,7.831c2.133-2.182,7.188-2.676,7.916-6.692s2.814,3.734.428,5.878-5.77,5.781-5.77,5.781l-3.539.179A5.1,5.1,0,0,1,126.408,7.831Z" transform="translate(1425.628 539.103)"/><path class="f" d="M1556.1,769.424c.653,21.852.546,45.3-.678,70.15-1.529,31.039-4.579,59.815-8.45,86.03a20.9,20.9,0,0,1-10.2.342c-.692-3.085-1.768-7.781-3.176-13.492-2.55-10.341-3.155-11.716-3.956-15.271-3.318-14.74.839-18.95-1.311-34.168-.472-3.338-.658-3.04-5.264-19.085-5.742-20-8.644-30-10.013-37.665-3.677-20.565-5.515-30.847.193-37.242C1520.7,760.667,1538.222,761.81,1556.1,769.424Z" transform="translate(-19.138 -31.844)"/><path class="g" d="M1541.873,913.148c-2.449-6.765,1.718-10.25,1.6-21.95-.1-10.092-3.244-11.325-4.274-22.664-.945-10.4,1.331-13.376,1.845-22.972.969-18.089-6.223-24.093-7.72-37.94-1.03-9.534.578-23.43,13.139-41.638-14.324-4.274-27.237-3.823-33.363,3.04-5.708,6.395,6.143,4.037,9.82,24.6.6,3.356-5.2,19.477-7.137,25.016,1.58,5.965,3.91,14.047,7.137,25.29,4.606,16.045,4.792,15.747,5.264,19.085,2.15,15.218-2.008,19.428,1.311,34.168.8,3.554,1.406,4.93,3.956,15.271,1.408,5.71,2.484,10.406,3.176,13.492a20.9,20.9,0,0,0,10.2-.342q.355-2.4.7-4.833A17.663,17.663,0,0,1,1541.873,913.148Z" transform="translate(-18.993 -31.844)"/><path class="f" d="M1526.229,768.623c-8.567,23.888-16.9,50.427-24.263,79.451-7.159,28.222-12.39,54.806-16.216,79.292a13.9,13.9,0,0,1-11.484.172,130.449,130.449,0,0,1-7.761-27.581c-1.183-7.147-2.472-14.935-1.607-24.958,1.151-13.317,4.8-15.451,6.388-28.623,1.19-9.844-.469-11.774-.987-26.009-.8-22.078-1.214-33.456,4.24-41.357C1486.255,762.037,1520.548,767.632,1526.229,768.623Z" transform="translate(-12.746 -32.373)"/><path class="h" d="M1548.782,742.128c-2.576-14.547-.475-13.83-2.891-30.629-3.164-21.994-7.112-25.636-8.995-41.086a113.126,113.126,0,0,1,2.617-40.37,66.863,66.863,0,0,0-42.8-7.792,65.243,65.243,0,0,0-7.785,1.714c-2.234-1.361-5.333.284-11.188.293-13.31.018-24.855-8.484-30.07-14.563-10.8-12.588-11.114-34.22-.158-53.042l-9.208-.313c-1.989,2.034-28.108,29.47-19.635,55.454,4.8,14.734,19.772,26.059,20.81,26.828,9.595,7.114,15.339,6.7,24.992,16.458,2.723,2.752,6.448,7.012,8.788,7.852,8.889,15.539,8.776,24.995,5.879,31.053-2.92,6.107-8.381,8.175-14.183,20.2-5.755,11.928-3.312,15.97-8.513,21.214-9.327,9.4-23.569,2.841-26.636,9.281-3.012,6.327,7.719,18.981,18.6,25.3,8.618,5,16.927,5.8,22.773,6.3,10.619.906,12.351-1.37,30.165-2.878,13.339-1.129,20.882-1.768,30.934-.347,13.918,1.967,18.337,5.86,21.663,3.061C1558.322,772.431,1552.489,763.064,1548.782,742.128Z" transform="translate(-5.979 -2.449)"/><g class="i" transform="translate(1411.009 583.556)"><path class="j" d="M1479.985,759.37c7.714-15.555,27.274-17.076,28.151-29.465.642-9.063-9.681-10.29-13.782-23.346-6.166-19.63,12.337-32.252,5.785-45.74-4.474-9.211-14.193-5.564-36.782-17.387-10.543-5.518-27.28-14.277-36.905-31.793a60.235,60.235,0,0,1-6.785-20.723c-2.768,8.073-3.855,17.012-.993,25.788,4.8,14.734,19.772,26.059,20.81,26.828,9.595,7.114,15.339,6.7,24.992,16.458,2.723,2.752,6.448,7.012,8.788,7.852,8.889,15.539,8.776,24.995,5.879,31.053-2.92,6.107-8.381,8.175-14.183,20.2-5.755,11.928-3.312,15.97-8.513,21.214-9.327,9.4-23.569,2.841-26.636,9.281-3.012,6.327,7.719,18.981,18.6,25.3,8.618,5,16.927,5.8,22.773,6.3a46.2,46.2,0,0,0,6.741.141C1476,771.462,1477.465,764.45,1479.985,759.37Z" transform="translate(-1416.988 -590.918)"/></g></g></svg>