<svg xmlns="http://www.w3.org/2000/svg" width="219.729" height="73.484" viewBox="0 0 219.729 73.484"><defs><style>.a{fill:#1b365d;stroke:rgba(0,0,0,0);stroke-miterlimit:10;}.b{fill:#eb3a16;}</style></defs><g transform="translate(-239.5 -64.175)"><path class="a" d="M163.234,68.2c0-3.331,2.309-6.233,5.143-6.233a3.07,3.07,0,0,1,2.924,2.312l.634-2.175h1.858l-1.72,6.957a4.3,4.3,0,0,0-.181,1c0,.43.2.68.589.68.364,0,.818-.341,1.27-1.586l.884.317c-.589,1.949-1.608,2.607-2.7,2.607a1.812,1.812,0,0,1-1.881-1.974v-.113a4.448,4.448,0,0,1-3.489,2.109C164.616,72.1,163.234,70.576,163.234,68.2Zm2.062-.226c0,1.426.7,2.423,2.062,2.423,1.993,0,3.489-2.153,3.489-4.281a2.1,2.1,0,0,0-2.22-2.4C166.722,63.709,165.3,65.772,165.3,67.971Zm-40.445-.025c0-3.307,2.447-5.983,5.347-5.983,2.381,0,3.945,1.36,3.945,3.65a6.5,6.5,0,0,1-.364,2.038H126.8v.341c0,1.473,1.175,2.448,2.946,2.448a6.424,6.424,0,0,0,3.216-.884l-.383,1.858a6.588,6.588,0,0,1-3.24.68C127,72.1,124.851,70.622,124.851,67.947Zm2.219-1.721h5.077a2.7,2.7,0,0,0,.138-.84c0-1.019-.68-1.768-2.087-1.768A3.481,3.481,0,0,0,127.07,66.226ZM67.294,68.2c0-3.331,2.312-6.233,5.145-6.233a3.071,3.071,0,0,1,2.924,2.312L76,62.1h1.858l-1.72,6.957a4.3,4.3,0,0,0-.181,1c0,.43.2.68.589.68.363,0,.815-.341,1.269-1.586l.884.317c-.589,1.949-1.607,2.607-2.7,2.607a1.812,1.812,0,0,1-1.88-1.974v-.113A4.45,4.45,0,0,1,70.628,72.1C68.679,72.1,67.294,70.576,67.294,68.2Zm2.065-.226c0,1.426.7,2.423,2.061,2.423,1.994,0,3.489-2.153,3.489-4.281a2.1,2.1,0,0,0-2.22-2.4C70.784,63.709,69.359,65.772,69.359,67.971Zm77.022,2.106a6.18,6.18,0,0,1,.135-1.019L149.326,57H147.49l.432-1.677h3.761l-3.172,13.711a4.969,4.969,0,0,0-.159.972c0,.476.2.727.589.727.454,0,.861-.341,1.338-1.586l.861.317c-.589,1.949-1.541,2.607-2.72,2.607A1.849,1.849,0,0,1,146.381,70.077Zm-39.114-.069a6.218,6.218,0,0,1,.159-1.176l1.247-5.01h-1.767l.385-1.677h1.789l.567-2.219,2.175-.749-.749,2.968h2.993l-.432,1.677h-2.968l-1.247,5.01a3.744,3.744,0,0,0-.135.859.746.746,0,0,0,.771.84,3.633,3.633,0,0,0,1.95-.862l.7.953a4.907,4.907,0,0,1-3.287,1.451A1.963,1.963,0,0,1,107.267,70.009Zm-56.715.115a5.017,5.017,0,0,1,.159-1.112l.839-2.946a3.356,3.356,0,0,0,.157-1,1.369,1.369,0,0,0-1.472-1.429c-1.2,0-2.335,1.021-2.833,2.97l-1.314,5.3H44.1l2.039-8.091H44.321l.429-1.677h3.49l-.521,2.29A4.3,4.3,0,0,1,51.1,61.989a2.565,2.565,0,0,1,2.652,2.764,6.108,6.108,0,0,1-.249,1.586l-.839,2.877a4.386,4.386,0,0,0-.135.793c0,.454.226.727.612.727s.815-.341,1.269-1.586l.884.317c-.52,1.768-1.45,2.607-2.651,2.607A1.885,1.885,0,0,1,50.552,70.124Zm143.7-51.165V18.89a12.24,12.24,0,1,1,24.478-.069v.069a12.24,12.24,0,1,1-24.478.069Zm2.811-.137v.069c0,5.45,3.978,9.906,9.461,9.906s9.395-4.387,9.395-9.837V18.89c0-5.452-3.977-9.908-9.463-9.908S197.062,13.369,197.062,18.822Zm-42.878.137V18.89A12.09,12.09,0,0,1,166.322,6.481a12.41,12.41,0,0,1,8.57,3.118,1.487,1.487,0,0,1,.55,1.1,1.393,1.393,0,0,1-1.373,1.338,1.617,1.617,0,0,1-.891-.309,9.827,9.827,0,0,0-6.89-2.742c-5.315,0-9.29,4.318-9.29,9.839v.069c0,5.553,4.008,9.906,9.29,9.906a9.831,9.831,0,0,0,7.129-2.911,1.248,1.248,0,0,1,.859-.378,1.347,1.347,0,0,1,1.3,1.3,1.281,1.281,0,0,1-.444.96,12.3,12.3,0,0,1-8.914,3.533A11.97,11.97,0,0,1,154.184,18.959ZM20.26,29.69v-17.9L12.581,23.071a1.327,1.327,0,0,1-1.132.687,1.381,1.381,0,0,1-1.166-.687L2.639,11.828v17.9A1.315,1.315,0,0,1,1.3,31.059,1.309,1.309,0,0,1,0,29.724V8.126A1.362,1.362,0,0,1,1.338,6.788h.307a1.485,1.485,0,0,1,1.27.722L11.484,20.4,20.054,7.51a1.454,1.454,0,0,1,1.27-.722h.307a1.362,1.362,0,0,1,1.338,1.338V29.69a1.367,1.367,0,0,1-1.338,1.37A1.4,1.4,0,0,1,20.26,29.69Zm26.476,1.2a1.369,1.369,0,0,1-1.338-1.37V8.263a1.371,1.371,0,0,1,1.338-1.372H61.65a1.235,1.235,0,0,1,0,2.47H48.109v8.192h12a1.252,1.252,0,0,1,1.235,1.235,1.229,1.229,0,0,1-1.235,1.232h-12v8.4H61.819a1.234,1.234,0,1,1,0,2.467ZM53.387,4.424a.932.932,0,0,1,.171-.516L55.615.79A1.451,1.451,0,0,1,56.848,0C57.673,0,58.7.55,58.7,1.029a1.23,1.23,0,0,1-.48.788L55.65,4.252a1.945,1.945,0,0,1-1.613.651C53.662,4.9,53.387,4.7,53.387,4.424Z" transform="translate(240 65.064)"/><g transform="translate(322.042 64.175)"><path class="b" d="M266.851,43.763A18.769,18.769,0,0,0,248.1,25.016H234.847a1.424,1.424,0,0,0-1.424,1.424v7a1.424,1.424,0,1,0,2.849,0V27.865H248.1a15.9,15.9,0,0,1,0,31.8H236.272V54.085a1.424,1.424,0,1,0-2.849,0v7a1.424,1.424,0,0,0,1.424,1.424H248.1A18.769,18.769,0,0,0,266.851,43.763Z" transform="translate(-233.423 -25.016)"/></g><path class="b" d="M352.855,49.037A5.447,5.447,0,1,1,358.3,43.59,5.453,5.453,0,0,1,352.855,49.037Zm0-7.971a2.524,2.524,0,1,0,2.524,2.524A2.527,2.527,0,0,0,352.855,41.067Z" transform="translate(20.074 31.265)"/><path class="b" d="M325.894,84.949a6.557,6.557,0,0,1-5.792-2.814c-1.4-2.093-1.574-5.65-1.574-8.516,0-3.333-1.176-7.306-6.775-7.306V63.391c6.072,0,9.7,3.824,9.7,10.229,0,1.3,0,5.27,1.083,6.894,1.024,1.536,2.649,1.574,4.227,1.48l.051,0c2.706-.159,3.407-1.607,3.407-7.043V59.8h2.923V74.948c0,3.822,0,9.6-6.158,9.961l-.05,0C326.652,84.928,326.3,84.949,325.894,84.949Z" transform="translate(41.515 18.239)"/></g></svg>