<svg xmlns="http://www.w3.org/2000/svg" xmlns:xlink="http://www.w3.org/1999/xlink" width="271" height="320" viewBox="0 0 271 320"><defs><style>.a{fill:#fff;}.b{clip-path:url(#a);}.c{fill:url(#b);}.d{fill:url(#c);}.e{fill:#b8feab;}.f{fill:url(#d);}.g{fill:#984112;stroke:rgba(0,0,0,0);stroke-miterlimit:10;}.h{fill:#0b2d08;}.i{fill:#094109;}.i,.k{mix-blend-mode:multiply;isolation:isolate;}.j{fill:url(#e);}.k{opacity:0.3;}.l{fill:url(#f);}</style><clipPath id="a"><rect class="a" width="271" height="320" transform="translate(-11959.5 10576.285)"/></clipPath><linearGradient id="b" x1="5.587" y1="0.291" x2="4.592" y2="0.291" gradientUnits="objectBoundingBox"><stop offset="0" stop-color="#444b8c"/><stop offset="0.996" stop-color="#26264f"/></linearGradient><linearGradient id="c" x1="0.364" y1="0.453" x2="4.443" y2="4.039" gradientUnits="objectBoundingBox"><stop offset="0" stop-color="#ffc444"/><stop offset="0.996" stop-color="#f36f56"/></linearGradient><linearGradient id="d" x1="5.276" y1="0.306" x2="4.28" y2="0.306" xlink:href="#b"/><linearGradient id="e" x1="0.029" y1="0.181" x2="2.187" y2="1.884" xlink:href="#c"/><linearGradient id="f" x1="0.557" y1="0.013" x2="3.024" y2="3.977" gradientUnits="objectBoundingBox"><stop offset="0" stop-color="#ff9085"/><stop offset="1" stop-color="#fb6fbb"/></linearGradient></defs><g class="b" transform="translate(11959.5 -10576.285)"><g transform="translate(-11947.224 10583.954)"><path class="c" d="M1494.114,960.06a4.908,4.908,0,0,1,1.751,3.21,2.135,2.135,0,0,1-.594,1.776,33.208,33.208,0,0,1-7.047,5.318c-5.27,3.052-7.179,3.094-7.536,2.2s2.178-3.811,4.344-6.348S1494.114,960.06,1494.114,960.06Z" transform="translate(-1363.401 -537.437)"/><path class="d" d="M1562.879,554.34c-13.2,21.8-13.255,47.121-.871,62.065,5.981,7.217,19.32,17.395,34.894,17.639,7.421.116,11.1-2.09,13.725.357,6.659,6.213-1.563,34.857-17.207,40.8-20.347,7.726-59.327-20.649-65.388-56.915-5.761-34.484,20.729-61.216,24.079-64.493Z" transform="translate(-1527.215 -539.045)"/><path class="e" d="M.043,42.528C.785,58.811,11.136,69.241,13.721,71.765c15.431,15.073,37.217,14.489,44.19,14.3,24.74-.664,30.327-12.943,47.589-8.373,14.615,3.869,15.74,14.028,28.321,14.716,13.15.719,26.943-9.562,32.465-21.246,10.644-22.524-5.966-57.626-29.671-68.221C111.984-8.064,98.662,15.865,53.5,8.8c-16.47-2.576-26.121-7.546-36.8-1.515C5.017,13.891-.55,29.545.043,42.528Z" transform="matrix(-0.995, 0.105, -0.105, -0.995, 239.221, 133.05)"/><path class="f" d="M1558.848,956.614a4.91,4.91,0,0,1,1.29,3.422,2.139,2.139,0,0,1-.834,1.677,33.166,33.166,0,0,1-7.716,4.291c-5.641,2.294-7.539,2.072-7.767,1.132s2.684-3.472,5.181-5.685S1558.848,956.614,1558.848,956.614Z" transform="translate(-1491.06 -537.45)"/><path class="g" d="M47.6.865a49.875,49.875,0,0,1-1.113,8.524c2.823-.26,2.434-.133,5.419.184A49.012,49.012,0,0,1,53.046.909,5.3,5.3,0,0,0,50.185,0,4.174,4.174,0,0,0,47.6.865ZM111.37,5.222a34.85,34.85,0,0,1-.688,6.25c3.6-.2,1.557-.3,5.152,0,.361-3.354.985-6.206.985-6.206a5.322,5.322,0,0,0-2.866-.909A4.168,4.168,0,0,0,111.37,5.222Zm-33.242,317.8c-10.719.368-19.412,5.183-19.135,6.8.144.9,2.932.184,7.648,2.2,1.947.832,6.827,2.858,9.558,7.692a15.651,15.651,0,0,1,1.764,5.088c-2.235,1.01-3.257,2.668-2.745,4.275a2.535,2.535,0,0,0,.752,1.1,2.338,2.338,0,0,0,2.089.3,21.481,21.481,0,0,1-.832,3.849,3.54,3.54,0,0,1,1.4-.769c-.311,1.734-.025,2.661.393,3.195.533.686,1.145.54,3.081,1.486,2.116,1.023,2.478,1.721,3.755,2.382a7.48,7.48,0,0,0,6.535.2c4.605-2.75,5.837-19.309-.59-20.948a10.422,10.422,0,0,0-5.449.038,7.071,7.071,0,0,1,.343-.68c3.422-5.856,13.846-4.059,14.335-7.05.439-2.668-7.332-7.2-15.455-8.651A34.469,34.469,0,0,0,79.5,323C79.038,323,78.581,323.007,78.128,323.026ZM10.47,409.854s-.025,3.487-4.228,5.945S-.835,427.893.219,426.56s10.171-5.894,13.033-8.537.377-8.27.071-8.27ZM147.928,418.1c2.5,2.553,8.411,3.131,9.264,7.832s3.294-4.37.5-6.879-6.752-6.765-6.752-6.765l-4.142-.21S145.439,415.546,147.928,418.1Z" transform="translate(179.295 427.264) rotate(180)"/><path class="h" d="M1510.066,770.48c-.764,25.572-.638,53.013.793,82.092,1.789,36.322,5.359,70,9.889,100.675a24.453,24.453,0,0,0,11.936.4c.809-3.61,2.069-9.106,3.717-15.788,2.984-12.1,3.693-13.711,4.629-17.87,3.883-17.249-.982-22.176,1.534-39.985.552-3.906.77-3.558,6.16-22.334,6.72-23.41,10.115-35.109,11.717-44.077,4.3-24.066,6.453-36.1-.226-43.582C1551.487,760.232,1530.986,761.569,1510.066,770.48Z" transform="translate(-1461.058 -538.216)"/><path class="i" d="M1518.184,938.67c2.866-7.916-2.011-11.994-1.87-25.686.121-11.81,3.8-13.253,5-26.523,1.105-12.166-1.557-15.653-2.16-26.882-1.134-21.168,7.283-28.194,9.035-44.4,1.206-11.157-.677-27.418-15.375-48.726,16.762-5,31.873-4.474,39.042,3.557,6.679,7.484-7.188,4.724-11.491,28.79-.7,3.928,6.087,22.792,8.352,29.274-1.849,6.98-4.576,16.438-8.352,29.595-5.391,18.776-5.608,18.428-6.16,22.334-2.516,17.808,2.349,22.736-1.534,39.985-.937,4.159-1.646,5.769-4.629,17.871-1.647,6.682-2.907,12.178-3.717,15.788a24.452,24.452,0,0,1-11.936-.4q-.416-2.81-.819-5.655A20.668,20.668,0,0,0,1518.184,938.67Z" transform="translate(-1452.699 -538.216)"/><path class="h" d="M1464.615,768.908c10.026,27.954,19.778,59.012,28.394,92.976,8.378,33.026,14.5,64.136,18.977,92.79a16.268,16.268,0,0,0,13.439.2,152.664,152.664,0,0,0,9.082-32.276c1.384-8.364,2.893-17.477,1.88-29.206-1.346-15.585-5.613-18.081-7.475-33.5-1.393-11.519.549-13.778,1.154-30.436.938-25.837,1.421-39.151-4.961-48.4C1511.395,761.2,1471.264,767.748,1464.615,768.908Z" transform="translate(-1388.133 -538.201)"/><path class="j" d="M1424.858,773.755c3.015-17.023.556-16.184,3.383-35.843,3.7-25.738,8.323-30,10.526-48.081,1.3-10.687,1.825-26.743-3.062-47.242a78.244,78.244,0,0,1,50.081-9.119,76.362,76.362,0,0,1,9.11,2.006c2.614-1.592,6.241.332,13.093.342,15.575.021,29.085-9.928,35.189-17.042,12.636-14.731,13.006-40.045.185-62.071l10.775-.366c2.327,2.38,32.893,34.487,22.978,64.894-5.622,17.242-23.138,30.5-24.352,31.395-11.228,8.325-17.95,7.84-29.246,19.26-3.187,3.221-7.546,8.205-10.283,9.188-10.4,18.184-10.269,29.249-6.88,36.339,3.417,7.147,9.807,9.567,16.6,23.638,6.735,13.959,3.876,18.689,9.962,24.825,10.915,11.005,27.581,3.324,31.17,10.861,3.525,7.4-9.033,22.212-21.771,29.606-10.085,5.855-19.808,6.786-26.65,7.37-12.427,1.06-14.454-1.6-35.3-3.368-15.609-1.321-24.436-2.069-36.2-.406-16.287,2.3-21.458,6.858-25.351,3.582C1413.694,809.217,1420.52,798.255,1424.858,773.755Z" transform="translate(-1382.686 -539.035)"/><g class="k" transform="translate(89.704 52.02)"><path class="l" d="M1449.964,788.046c-9.027-18.2-31.917-19.983-32.943-34.481-.751-10.606,11.329-12.042,16.129-27.32,7.215-22.972-14.437-37.742-6.77-53.526,5.235-10.78,16.608-6.512,43.044-20.346,12.338-6.458,31.924-16.708,43.187-37.2a70.49,70.49,0,0,0,7.94-24.251c3.239,9.447,4.511,19.908,1.161,30.178-5.622,17.242-23.138,30.5-24.352,31.395-11.228,8.325-17.95,7.84-29.246,19.26-3.187,3.221-7.546,8.205-10.284,9.188-10.4,18.184-10.27,29.249-6.88,36.339,3.417,7.147,9.807,9.567,16.6,23.638,6.735,13.959,3.876,18.689,9.962,24.825,10.915,11.005,27.581,3.324,31.17,10.861,3.525,7.4-9.033,22.212-21.771,29.606-10.085,5.855-19.808,6.786-26.65,7.37a54.056,54.056,0,0,1-7.888.165C1454.626,802.2,1452.913,793.991,1449.964,788.046Z" transform="translate(-1416.988 -590.918)"/></g></g></g></svg>